<?xml version="1.0" encoding="UTF-8"?>
<svg width="82px" height="82px" viewBox="0 0 82 82" version="1.1" xmlns="http://www.w3.org/2000/svg" xmlns:xlink="http://www.w3.org/1999/xlink">
    <title>31E83427-B402-4172-B553-2FC4D242FC66</title>
    <g id="LP-Inbound" stroke="none" stroke-width="1" fill="none" fill-rule="evenodd">
        <g id="FE-test-D-LP-after-submission" transform="translate(-519.000000, -615.000000)">
            <g id="Group-37" transform="translate(520.000000, 616.000000)">
                <path d="M79,40 C79,61.7233333 61.39,79.3333333 39.6666667,79.3333333 C17.9433333,79.3333333 0.333333333,61.7233333 0.333333333,40 C0.333333333,18.2766667 17.9433333,0.666666667 39.6666667,0.666666667 C61.39,0.666666667 79,18.2766667 79,40" id="Fill-1" fill="#FFF2CD"></path>
                <path d="M77.8164,50.8821333 C79.8837333,43.7181333 79.9404,35.8874667 77.5417333,28.2401333 C71.0410667,7.51213333 48.9684,-4.02053333 28.2404,2.47946667 C7.5124,8.98013333 -4.02093333,31.0528 2.47973333,51.7808 C7.5304,67.8874667 21.9850667,78.4421333 37.9044,79.2981333" id="Stroke-3" stroke="#FFBB00" stroke-width="2" stroke-linecap="round" stroke-linejoin="round"></path>
                <path d="M39.6666667,35.888 C34.0606667,35.888 29.5,31.3273333 29.5,25.7213333 C29.5,20.1153333 34.0606667,15.5546667 39.6666667,15.5546667 C45.2726667,15.5546667 49.8333333,20.1153333 49.8333333,25.7213333 C49.8333333,31.3273333 45.2726667,35.888 39.6666667,35.888" id="Fill-5" fill="#FFBB00"></path>
                <path d="M39.6666667,14.888 C33.6933333,14.888 28.8333333,19.748 28.8333333,25.7213333 C28.8333333,31.6953333 33.6933333,36.5546667 39.6666667,36.5546667 C45.64,36.5546667 50.5,31.6953333 50.5,25.7213333 C50.5,19.748 45.64,14.888 39.6666667,14.888 M39.6666667,16.2213333 C44.9133333,16.2213333 49.1666667,20.4746667 49.1666667,25.7213333 C49.1666667,30.968 44.9133333,35.2213333 39.6666667,35.2213333 C34.42,35.2213333 30.1666667,30.968 30.1666667,25.7213333 C30.1666667,20.4746667 34.42,16.2213333 39.6666667,16.2213333" id="Fill-7" fill="#FFF2CD"></path>
                <path d="M26.6796667,59.9694 C22.997,59.9694 19.9996667,57.4434 19.9996667,54.3380667 L19.9996667,48.5814 C19.9996667,48.1780667 20.0603333,47.7620667 20.1856667,47.3114 C21.1063333,41.8420667 26.7503333,37.7214 33.333,37.7214 L45.9996667,37.7214 C52.5823333,37.7214 58.227,41.8420667 59.1476667,47.3114 C59.273,47.7620667 59.333,48.1780667 59.333,48.5814 L59.333,54.3380667 C59.333,57.4434 56.3363333,59.9694 52.6536667,59.9694 L26.6796667,59.9694 Z" id="Fill-9" fill="#FFBB00"></path>
                <path d="M46,37.0546667 L33.3333333,37.0546667 C26.442,37.0546667 20.5253333,41.3973333 19.534,47.1673333 C19.3993333,47.6646667 19.3333333,48.128 19.3333333,48.5813333 L19.3333333,54.338 C19.3333333,57.8113333 22.6286667,60.636 26.68,60.636 L33.3333333,60.636 L46,60.636 L52.6533333,60.636 C56.7046667,60.636 60,57.8113333 60,54.338 L60,48.5813333 C60,48.128 59.934,47.6646667 59.7993333,47.1673333 C58.808,41.3973333 52.8913333,37.0546667 46,37.0546667 M46,38.388 C52.3906667,38.388 57.6593333,42.362 58.496,47.4566667 C58.5986667,47.8193333 58.6666667,48.1933333 58.6666667,48.5813333 L58.6666667,54.338 C58.6666667,57.0686667 55.9606667,59.3026667 52.6533333,59.3026667 L46,59.3026667 L33.3333333,59.3026667 L26.68,59.3026667 C23.3726667,59.3026667 20.6666667,57.0686667 20.6666667,54.338 L20.6666667,48.5813333 C20.6666667,48.1933333 20.7346667,47.8193333 20.8373333,47.4566667 C21.674,42.362 26.9426667,38.388 33.3333333,38.388 L46,38.388" id="Fill-11" fill="#FFF2CD"></path>
                <path d="M12,23.3333333 C5.75066667,23.3333333 0.666666667,18.2493333 0.666666667,12 C0.666666667,5.75066667 5.75066667,0.666666667 12,0.666666667 C18.2493333,0.666666667 23.3333333,5.75066667 23.3333333,12 C23.3333333,18.2493333 18.2493333,23.3333333 12,23.3333333" id="Fill-13" fill="#FFBB00"></path>
                <path d="M12,0 C5.38333333,0 0,5.38333333 0,12 C0,18.6166667 5.38333333,24 12,24 C18.6166667,24 24,18.6166667 24,12 C24,5.38333333 18.6166667,0 12,0 M12,1.33333333 C17.8913333,1.33333333 22.6666667,6.10866667 22.6666667,12 C22.6666667,17.8913333 17.8913333,22.6666667 12,22.6666667 C6.10866667,22.6666667 1.33333333,17.8913333 1.33333333,12 C1.33333333,6.10866667 6.10866667,1.33333333 12,1.33333333" id="Fill-15" fill="#FFF2CD"></path>
                <path d="M11.3333333,18 L11.3333333,6 C11.3333333,5.63266667 11.6333333,5.33333333 12,5.33333333 C12.3666667,5.33333333 12.6666667,5.63266667 12.6666667,6 L12.6666667,18 C12.6666667,18.3666667 12.3666667,18.6666667 12,18.6666667 C11.6333333,18.6666667 11.3333333,18.3666667 11.3333333,18" id="Fill-17" fill="#FFF2CD"></path>
                <path d="M6,11.3333333 L18,11.3333333 C18.3666667,11.3333333 18.6666667,11.6333333 18.6666667,12 C18.6666667,12.3666667 18.3666667,12.6666667 18,12.6666667 L6,12.6666667 C5.63333333,12.6666667 5.33333333,12.3666667 5.33333333,12 C5.33333333,11.6333333 5.63333333,11.3333333 6,11.3333333" id="Fill-19" fill="#FFF2CD"></path>
                <g id="Group-24" transform="translate(50.666667, 57.333333)">
                    <line x1="0.1302" y1="-0.000666666667" x2="3.88686667" y2="3.756" id="Fill-21" fill="#FFF2CD"></line>
                    <line x1="0.1302" y1="-0.000666666667" x2="3.88686667" y2="3.756" id="Stroke-23" stroke="#FFBB00" stroke-width="2" stroke-linecap="round" stroke-linejoin="round"></line>
                </g>
                <g id="Group-28" transform="translate(55.333333, 54.666667)">
                    <line x1="0.347" y1="0.0371333333" x2="4.103" y2="3.79313333" id="Fill-25" fill="#FFF2CD"></line>
                    <line x1="0.347" y1="0.0371333333" x2="4.103" y2="3.79313333" id="Stroke-27" stroke="#FFBB00" stroke-width="2" stroke-linecap="round" stroke-linejoin="round"></line>
                </g>
                <g id="Group-32" transform="translate(60.000000, 52.000000)">
                    <line x1="0.563133333" y1="0.0742" x2="4.3198" y2="3.8302" id="Fill-29" fill="#FFF2CD"></line>
                    <line x1="0.563133333" y1="0.0742" x2="4.3198" y2="3.8302" id="Stroke-31" stroke="#FFBB00" stroke-width="2" stroke-linecap="round" stroke-linejoin="round"></line>
                </g>
                <path d="M66.3398667,79.3333333 C66.2538667,79.3333333 66.1678667,79.33 66.0818667,79.3233333 C66.0518667,79.3206667 66.0218667,79.3173333 65.9925333,79.3106667 C65.9258667,79.296 65.8598667,79.2766667 65.7952,79.2573333 C65.7152,79.2333333 65.5818667,79.1766667 65.5165333,79.1246667 C59.2078667,74.1406667 47.8445333,73.0326667 47.7298667,73.022 C47.6792,73.0166667 47.6292,73.0066667 47.5805333,72.99 C46.1692,72.52 45.5185333,71.0593333 46.0325333,69.5173333 C46.4832,68.1653333 48.1712,67.1833333 50.0458667,67.1833333 C50.7092,67.1833333 51.5692,67.2526667 52.3405333,67.3313333 L39.8078667,54.7993333 C38.5125333,53.5033333 38.5132,51.3953333 39.8078667,50.1 C40.4358667,49.4726667 41.2698667,49.1266667 42.1578667,49.1266667 C43.0452,49.1266667 43.8798667,49.4726667 44.5072,50.1 L49.7618667,55.3546667 C49.8625333,54.648 50.1872,53.9946667 50.7012,53.4813333 C51.3285333,52.8533333 52.1625333,52.508 53.0505333,52.508 C53.7665333,52.508 54.4472,52.7326667 55.0138667,53.1486667 C55.1065333,52.4233333 55.4345333,51.7526667 55.9605333,51.2273333 C56.5872,50.5993333 57.4218667,50.254 58.3092,50.254 C59.0258667,50.254 59.7078667,50.4793333 60.2745333,50.8966667 C60.3645333,50.1926667 60.6798667,49.5126667 61.2185333,48.9733333 C61.8465333,48.346 62.6812,48 63.5685333,48 C64.4558667,48 65.2905333,48.346 65.9178667,48.9733333 L73.4305333,56.486 C73.9332,56.988 75.5212,59.6493333 76.6992,61.96 C79.3912,67.2446667 78.6632,67.972 78.3138667,68.3213333 L67.7798667,78.8553333 C67.7318667,78.9033333 67.6765333,78.944 67.6165333,78.9753333 L67.5358667,79.018 C67.4578667,79.0606667 67.3792,79.102 67.2978667,79.1393333 C67.0665333,79.2233333 66.8832,79.2733333 66.6972,79.3113333 C66.6718667,79.3166667 66.6458667,79.3193333 66.6198667,79.322 C66.5258667,79.3293333 66.4332,79.3333333 66.3398667,79.3333333" id="Fill-33" fill="#FFF2CD"></path>
                <path d="M63.5683333,47.3333333 C62.5023333,47.3333333 61.501,47.748 60.7476667,48.502 C60.3456667,48.9033333 60.0403333,49.376 59.8423333,49.8913333 C59.363,49.6913333 58.8443333,49.5873333 58.3096667,49.5873333 C57.2443333,49.5873333 56.2423333,50.002 55.4883333,50.756 C55.081,51.1633333 54.7796667,51.6386667 54.5856667,52.146 C54.1056667,51.946 53.5856667,51.8413333 53.051,51.8413333 C51.985,51.8413333 50.983,52.256 50.2296667,53.0093333 C49.9023333,53.3373333 49.643,53.7086667 49.4536667,54.104 L44.9783333,49.6286667 C44.2243333,48.8753333 43.223,48.46 42.1576667,48.46 C41.0916667,48.46 40.0896667,48.8753333 39.3363333,49.6286667 C38.5823333,50.382 38.1676667,51.384 38.1676667,52.45 C38.1676667,53.5153333 38.583,54.5166667 39.3363333,55.2706667 L50.595,66.5293333 C50.403,66.5213333 50.2183333,66.5166667 50.0456667,66.5166667 C47.8583333,66.5166667 45.9476667,67.6646667 45.3996667,69.3073333 C44.7643333,71.2153333 45.5923333,73.0306667 47.3703333,73.6233333 C47.467,73.6546667 47.567,73.6766667 47.6683333,73.6853333 C47.7803333,73.696 58.953,74.7893333 65.103,79.648 C65.2396667,79.756 65.3956667,79.836 65.563,79.8833333 L65.603,79.896 C65.6876667,79.9213333 65.773,79.9453333 65.8596667,79.9633333 C65.915,79.9753333 65.971,79.9833333 66.0276667,79.9873333 C66.133,79.996 66.237,80 66.341,80 C66.451,80 66.561,79.9953333 66.6716667,79.9866667 C66.7243333,79.9826667 66.777,79.9753333 66.8296667,79.9646667 C67.045,79.9213333 67.259,79.862 67.4663333,79.7893333 C67.501,79.7766667 67.5363333,79.7633333 67.571,79.7473333 C67.667,79.704 67.761,79.654 67.8543333,79.604 L67.9243333,79.5673333 C68.045,79.504 68.155,79.4233333 68.251,79.3273333 L78.785,68.7933333 C79.6616667,67.9166667 79.7183333,66.4173333 77.293,61.6573333 C76.187,59.486 74.5223333,56.6346667 73.9016667,56.014 L66.389,48.502 C65.6363333,47.748 64.6343333,47.3333333 63.5683333,47.3333333 M63.5683333,48.6666667 C64.2483333,48.6666667 64.9276667,48.926 65.4463333,49.4446667 L72.959,56.9573333 C73.7103333,57.7086667 78.9696667,66.724 77.8423333,67.85 L67.3083333,78.384 C67.2136667,78.4333333 67.1203333,78.4873333 67.023,78.532 C66.8736667,78.5846667 66.721,78.626 66.5656667,78.6573333 C66.491,78.6633333 66.4156667,78.6666667 66.341,78.6666667 C66.2723333,78.6666667 66.2023333,78.664 66.1336667,78.6586667 C66.0643333,78.644 65.9976667,78.6213333 65.9296667,78.6013333 C59.387,73.432 47.7916667,72.358 47.7916667,72.358 C46.665,71.9826667 46.289,70.8553333 46.665,69.7286667 C47.0403333,68.6013333 48.543,67.85 50.0456667,67.85 C51.5483333,67.85 54.1776667,68.226 54.1776667,68.226 L40.279,54.328 C39.2423333,53.2906667 39.2423333,51.6086667 40.279,50.5713333 C40.7983333,50.0526667 41.4776667,49.7933333 42.1576667,49.7933333 C42.837,49.7933333 43.517,50.0526667 44.0356667,50.5713333 L51.1723333,57.7086667 C50.1356667,56.6713333 50.1356667,54.9893333 51.1723333,53.9526667 C51.6916667,53.4333333 52.371,53.1746667 53.051,53.1746667 C53.7303333,53.1746667 54.4103333,53.4333333 54.929,53.9526667 L56.4316667,55.4546667 C55.3936667,54.4173333 55.3936667,52.736 56.4316667,51.6986667 C56.9496667,51.18 57.6296667,50.9206667 58.3096667,50.9206667 C58.9896667,50.9206667 59.669,51.18 60.1876667,51.6986667 L61.6903333,53.2013333 C60.653,52.1633333 60.653,50.482 61.6903333,49.4446667 C62.209,48.926 62.8883333,48.6666667 63.5683333,48.6666667" id="Fill-35" fill="#FFBB00"></path>
            </g>
        </g>
    </g>
</svg>