<?xml version="1.0" encoding="UTF-8"?>
<svg width="103px" height="25px" viewBox="0 0 103 25" version="1.1" xmlns="http://www.w3.org/2000/svg" xmlns:xlink="http://www.w3.org/1999/xlink">
    <title>84ABBC2C-F012-43DF-8637-95E1E6698595</title>
    <g id="LP-Inbound" stroke="none" stroke-width="1" fill="none" fill-rule="evenodd">
        <g id="FE-test-T-LP" transform="translate(-15.000000, -13.000000)" fill="#1650FF" fill-rule="nonzero">
            <g id="Snubes_logo" transform="translate(15.000000, 13.000000)">
                <g id="Group" transform="translate(0.851301, 0.557798)">
                    <path d="M23.9829292,6.89412714 L23.9829292,9.15128983 L24.0760722,9.15128983 C24.6327986,8.2109853 25.3547099,7.52653861 26.2420192,7.09794977 C27.1286891,6.66979272 28.0368864,6.45517442 28.965119,6.45517442 C30.1410223,6.45517442 31.1052758,6.61732567 31.8580927,6.94098044 C32.6106964,7.26549887 33.2042963,7.71459953 33.6380399,8.28914609 C34.0713572,8.86412451 34.3755106,9.564117 34.5509263,10.3893395 C34.7252763,11.2152097 34.8133038,12.1291728 34.8133038,13.1323082 L34.8133038,23.1012636 L30.4195986,23.1012636 L30.4195986,13.9473828 C30.4195986,12.6102287 30.2132774,11.6118433 29.8010611,10.9535222 C29.3879923,10.295417 28.6562765,9.96636437 27.6035691,9.96636437 C26.406991,9.96636437 25.5403564,10.3267245 25.0043048,11.0476606 C24.4674005,11.7685967 24.2003339,12.9548271 24.2003339,14.6057039 L24.2003339,23.1014795 L19.8066287,23.1014795 L19.8066287,6.89412714 L23.9829292,6.89412714 Z" id="Path"></path>
                    <path d="M46.8460113,23.1014795 L46.8460113,20.8441009 L46.7526551,20.8441009 C46.1963552,21.7844054 45.4731651,22.4636701 44.5867082,22.8818952 C43.699825,23.3003361 42.7914148,23.5086929 41.8636086,23.5086929 C40.6872789,23.5086929 39.7232383,23.3521554 38.9704215,23.0384326 C38.2171785,22.7251418 37.6246443,22.281223 37.1909008,21.7060287 C36.7575834,21.1314821 36.4527906,20.4314896 36.2780143,19.6054035 C36.1028118,18.7803969 36.0149974,17.8653543 36.0149974,16.8624347 L36.0149974,6.89412714 L40.409555,6.89412714 L40.409555,16.0477921 C40.409555,17.3855939 40.6154501,18.3831155 41.0280928,19.0412207 C41.4407352,19.6997578 42.1733035,20.0288104 43.2253717,20.0288104 C44.4215232,20.0288104 45.2881579,19.6680185 45.8248489,18.9470823 C46.3611136,18.2257144 46.6288198,17.0401318 46.6288198,15.3890391 L46.6288198,6.89412714 L51.0229513,6.89412714 L51.0229513,23.1014795 L46.8460113,23.1014795 Z" id="Path"></path>
                    <path d="M56.5861656,0.718561075 L56.5861656,8.86909054 L56.6477637,8.86909054 C57.1842417,8.03350417 57.9112682,7.42203636 58.829057,7.03511883 C59.7470588,6.64863316 60.7010816,6.45517442 61.6919775,6.45517442 C62.4959484,6.45517442 63.2903281,6.62272352 64.0746897,6.95674214 C64.8588388,7.29119261 65.5651906,7.80312417 66.1945983,8.49275282 C66.8231535,9.18238142 67.3342674,10.0654688 67.7264484,11.141799 C68.1182032,12.2183452 68.3142935,13.4982821 68.3142935,14.9820416 C68.3142935,16.4662329 68.1182032,17.7461699 67.7264484,18.8222842 C67.3342674,19.8988303 66.823793,20.7817018 66.1945983,21.4713304 C65.5651906,22.161175 64.8581993,22.6733224 64.0746897,23.0071252 C63.2903281,23.3415756 62.4965879,23.5089088 61.6919775,23.5089088 C60.5154349,23.5089088 59.4637933,23.320632 58.5351343,22.9447261 C57.6071148,22.5686042 56.9054521,21.9316586 56.4307854,21.0330254 L56.3685478,21.0330254 L56.3685478,23.1021272 L52.1909684,23.1021272 L52.1909684,0.718561075 L56.5861656,0.718561075 Z M63.7033971,13.0383857 C63.5588867,12.411588 63.3318907,11.857985 63.0228353,11.3771451 C62.7135665,10.896521 62.3260746,10.5150013 61.8627044,10.232802 C61.3978418,9.95060267 60.8362133,9.80961098 60.1761132,9.80961098 C59.5364745,9.80961098 58.9793218,9.95060267 58.5050814,10.232802 C58.0299882,10.5150013 57.63866,10.896521 57.3285384,11.3771451 C57.0190567,11.857985 56.7916345,12.411588 56.6481899,13.0383857 C56.5032534,13.6653993 56.4312117,14.3237205 56.4312117,15.0133491 C56.4312117,15.6824659 56.5032534,16.3299913 56.6481899,16.957005 C56.7922737,17.5835868 57.0190567,18.1380534 57.3285384,18.6182457 C57.6380205,19.0993015 58.0295619,19.4803894 58.5050814,19.7625887 C58.9793218,20.0445721 59.5364745,20.1857797 60.1761132,20.1857797 C60.8362133,20.1857797 61.3978418,20.0445721 61.8627044,19.7625887 C62.3267138,19.4801735 62.7135665,19.0993015 63.0228353,18.6182457 C63.3318907,18.1378375 63.5595262,17.5835868 63.7033971,16.957005 C63.8474808,16.3299913 63.920162,15.6824659 63.920162,15.0133491 C63.920162,14.3235045 63.8474808,13.6653993 63.7033971,13.0383857 Z" id="Shape"></path>
                    <path d="M74.637998,19.2139518 C75.2983114,19.862125 76.2470055,20.1857797 77.48472,20.1857797 C78.3713899,20.1857797 79.1348635,19.9614453 79.7745023,19.5116969 C80.414141,19.0628121 80.8058954,18.58737 80.9508319,18.0855864 L84.8189293,18.0855864 C84.1999656,20.0292422 83.2508452,21.4190793 81.9719944,22.2548815 C80.6922907,23.0911156 79.1450946,23.5091247 77.329979,23.5091247 C76.0720161,23.5091247 74.9366095,23.3053021 73.925891,22.8976569 C72.9149596,22.4904435 72.0587688,21.9102831 71.3573191,21.1580395 C70.6556564,20.40558 70.114276,19.5071627 69.7327523,18.4619241 C69.3508023,17.4171173 69.1602535,16.2673764 69.1602535,15.013565 C69.1602535,13.8016409 69.3559176,12.6732755 69.7480986,11.6278209 C70.1400663,10.5830142 70.6967928,9.67941495 71.4195567,8.91615974 C72.1414678,8.15355225 73.002561,7.55244829 74.0034746,7.11349557 C75.0031096,6.67475875 76.1125129,6.45517442 77.3293395,6.45517442 C78.6915288,6.45517442 79.8770234,6.72161205 80.8879552,7.25470317 C81.8986737,7.78757838 82.7295003,8.50376443 83.3793697,9.40196576 C84.0292391,10.3008148 84.4981509,11.3251098 84.7869583,12.474203 C85.075552,13.623728 85.1784998,14.8252882 85.096227,16.0793155 L73.5535322,16.0793155 C73.6166222,17.5211877 73.9774713,18.5664263 74.637998,19.2139518 L74.637998,19.2139518 Z M79.6044152,10.6875164 C79.0779549,10.102606 78.2782469,9.80961098 77.2059304,9.80961098 C76.5049068,9.80961098 75.9223904,9.93009087 75.4579544,10.170187 C74.9933051,10.410499 74.6220121,10.7084601 74.3434357,11.0636382 C74.0646465,11.4190323 73.8685558,11.7951541 73.7553777,12.1920037 C73.6417731,12.589285 73.5744201,12.9444632 73.5541717,13.2577541 L80.7027347,13.2577541 C80.4968399,12.1293887 80.1308755,11.2726428 79.6044152,10.6875164 L79.6044152,10.6875164 Z" id="Shape"></path>
                    <path d="M5.25565066,17.5835868 C5.52335678,18.10653 5.8793036,18.5299369 6.32327796,18.8531599 C6.76661293,19.1774623 7.28731837,19.4173426 7.88603372,19.5745278 C8.48432277,19.7312812 9.10307341,19.8096579 9.74271198,19.8096579 C10.1760293,19.8096579 10.640039,19.7733844 11.1353806,19.6997578 C11.630509,19.626563 12.0945187,19.4857873 12.527836,19.2767827 C12.9605138,19.0677781 13.3217892,18.780181 13.6108095,18.4148549 C13.8994035,18.0493128 14.0437005,17.5835868 14.0437005,17.01962 C14.0437005,16.4137659 13.8527254,15.9223461 13.4712016,15.5462243 C13.0892515,15.1701025 12.5892208,14.8565957 11.970257,14.6059198 C11.3512932,14.3552439 10.6498435,14.1356596 9.86590794,13.9475987 C9.08175925,13.7593218 8.28759288,13.5509651 7.48319568,13.320585 C6.65769748,13.1120123 5.85330028,12.8557227 5.06936474,12.5525797 C4.28521601,12.2498686 3.58397948,11.857985 2.96501567,11.3771451 C2.34605187,10.896521 1.84580804,10.2956329 1.46407107,9.57448085 C1.08212095,8.85354475 0.891145892,7.98125306 0.891145892,6.95695804 C0.891145892,5.80786489 1.13391441,4.80947955 1.61838574,3.96331342 C2.10285706,3.1169314 2.73738022,2.41154106 3.52195521,1.84714243 C4.30567762,1.28295971 5.19298699,0.865166535 6.18281753,0.593115168 C7.17307436,0.321711539 8.16333119,0.185469941 9.15358802,0.185469941 C10.3086035,0.185469941 11.4175803,0.316313695 12.4796659,0.577353462 C13.5419647,0.838825053 14.4857566,1.26201607 15.3112548,1.84692651 C16.1361136,2.43226878 16.7913115,3.17933048 17.2764223,4.0883275 C17.7608936,4.99754048 18.0036621,6.09978034 18.0036621,7.39569486 L13.3002619,7.39569486 C13.2586992,6.72700986 13.1190914,6.1729751 12.8825039,5.73423828 C12.6452771,5.29528556 12.3300404,4.95068718 11.9384989,4.69979535 C11.546318,4.44890353 11.0978676,4.2716383 10.5927215,4.16670424 C10.0867228,4.06263376 9.53532501,4.0099508 8.93660966,4.0099508 C8.54464188,4.0099508 8.15246097,4.052054 7.76070634,4.1353967 C7.36852538,4.21917125 7.01279171,4.36556083 6.693079,4.57413351 C6.37294003,4.783354 6.10992303,5.04439377 5.90402804,5.35768465 C5.69749365,5.67119147 5.59454615,6.06847285 5.59454615,6.54909691 C5.59454615,6.98804964 5.67681889,7.34344371 5.84221691,7.61506328 C6.00654925,7.88689872 6.33201681,8.13757464 6.81712754,8.36730688 C7.30117259,8.59747097 7.97235614,8.82720325 8.82854679,9.05693553 C9.68495054,9.28709962 10.8043713,9.57944689 12.1861696,9.93462506 C12.5990253,10.0183996 13.1710979,10.1697552 13.9040926,10.3891236 C14.6362347,10.608492 15.3634746,10.9587041 16.0853859,11.4391123 C16.8075103,11.9201682 17.4315895,12.5629436 17.9576235,13.3672224 C18.4836575,14.1719331 18.7468876,15.2009782 18.7468876,16.4550054 C18.7468876,17.4790845 18.550584,18.4299688 18.1588294,19.3076584 C17.7664353,20.1853479 17.1839187,20.9432053 16.4104271,21.5805828 C15.6367224,22.2179603 14.6775842,22.7141302 13.5323733,23.0695242 C12.3873755,23.4249183 11.0616335,23.6021835 9.55578662,23.6021835 C8.3383206,23.6021835 7.15751501,23.4503962 6.01251724,23.1479009 C4.86751943,22.8451898 3.85658784,22.3695317 2.97972246,21.7213586 C2.10264392,21.074049 1.40588336,20.2486107 0.890506468,19.2446116 C0.374703295,18.2414761 0.127032515,17.0502797 0.148346697,15.6710225 L4.85174694,15.6710225 C4.85345206,16.4239138 4.987092,17.0617232 5.25565066,17.5835868 Z" id="Path"></path>
                    <path d="M90.7508791,19.0729601 C90.9467565,19.4179903 91.1993295,19.6997578 91.5092374,19.9193421 C91.8187194,20.1391424 92.1746661,20.3010777 92.5770781,20.405364 C92.9797027,20.5100822 93.3976741,20.5621174 93.8301386,20.5621174 C94.1396207,20.5621174 94.4650882,20.5258439 94.8050494,20.4524332 C95.145863,20.3792385 95.4549188,20.2643724 95.7332818,20.1076189 C96.0118582,19.9504337 96.2437566,19.7422928 96.4298292,19.4808212 C96.6152626,19.2197814 96.7081926,18.8909448 96.7081926,18.4930156 C96.7081926,17.8243307 96.2695466,17.3229789 95.3931074,16.9885284 C94.516242,16.6542939 93.2934477,16.3198434 91.7257898,15.9851771 C91.0863644,15.8394352 90.462072,15.6667042 89.8544047,15.4678476 C89.2456717,15.2696388 88.7038651,15.0083831 88.2298379,14.6840806 C87.7547447,14.3604258 87.3727944,13.9529965 87.0848398,13.4615768 C86.7956065,12.9708047 86.6515228,12.3694848 86.6515228,11.6589125 C86.6515228,10.6141057 86.8523022,9.75735984 87.2549272,9.08824302 C87.6571255,8.41955803 88.188275,7.89208067 88.8488016,7.50516315 C89.509115,7.11846157 90.2512745,6.84684204 91.0767728,6.69008861 C91.9016317,6.53311931 92.7482309,6.45495852 93.6142261,6.45495852 C94.4804343,6.45495852 95.3210657,6.53894897 96.136333,6.7056344 C96.9509612,6.8731835 97.6784142,7.15538282 98.3178393,7.55201644 C98.9570518,7.9490819 99.4882012,8.47677517 99.9117137,9.13509632 C100.334161,9.79363337 100.58716,10.6242537 100.670499,11.6273891 L96.4920668,11.6273891 C96.4304687,10.7708592 96.1103297,10.1909147 95.5329286,9.88755586 C94.9551013,9.58484474 94.2743262,9.43305735 93.4903908,9.43305735 C93.2429331,9.43305735 92.9745874,9.44881905 92.6864199,9.47991064 C92.3973996,9.51143404 92.133743,9.57944689 91.8971555,9.68394914 C91.6599288,9.78866733 91.4580837,9.94002291 91.2939644,10.1382317 C91.1285665,10.3373043 91.0462937,10.6037419 91.0462937,10.9377605 C91.0462937,11.334826 91.1903775,11.6586966 91.4793978,11.9093725 C91.7679915,12.1602643 92.1448265,12.363871 92.6092625,12.5206245 C93.0734852,12.6773779 93.6042084,12.8185855 94.2029236,12.9440314 C94.801426,13.0692614 95.4097328,13.2052871 96.0284832,13.3516766 C96.6679086,13.4978502 97.2924143,13.6755473 97.9007211,13.8843359 C98.5090275,14.0933405 99.0506209,14.3701419 99.5255008,14.7151722 C99.9997413,15.0599865 100.381265,15.4887913 100.670499,16.0005069 C100.959093,16.5128703 101.10339,17.1446341 101.10339,17.8970936 C101.10339,18.96306 100.891527,19.8562953 100.468653,20.5776632 C100.04578,21.2988153 99.493956,21.8783279 98.8123285,22.3172806 C98.1324062,22.7566652 97.3527333,23.065206 96.4760812,23.2420393 C95.5996421,23.4190887 94.7067911,23.508477 93.79902,23.508477 C92.8710005,23.508477 91.9628032,23.4143386 91.0761333,23.2262776 C90.188824,23.0382167 89.4001994,22.7249258 88.7094066,22.2857572 C88.0179746,21.8470204 87.4505913,21.267076 87.0072561,20.545708 C86.5634952,19.8247719 86.3211528,18.9213886 86.2802297,17.8340468 L90.4578091,17.8340468 C90.4569563,18.3157505 90.5545755,18.7281458 90.7508791,19.0729601 L90.7508791,19.0729601 Z" id="Path"></path>
                </g>
            </g>
        </g>
    </g>
</svg>